<?xml version="1.0" encoding="UTF-8" standalone="no"?>
<svg
   xmlns:dc="http://purl.org/dc/elements/1.1/"
   xmlns:cc="http://creativecommons.org/ns#"
   xmlns:rdf="http://www.w3.org/1999/02/22-rdf-syntax-ns#"
   xmlns:svg="http://www.w3.org/2000/svg"
   xmlns="http://www.w3.org/2000/svg"
   xmlns:xlink="http://www.w3.org/1999/xlink"
   xmlns:sodipodi="http://sodipodi.sourceforge.net/DTD/sodipodi-0.dtd"
   xmlns:inkscape="http://www.inkscape.org/namespaces/inkscape"
   height="660"
   width="600"
   version="1.0"
   id="svg2"
   sodipodi:version="0.32"
   inkscape:version="0.48.4 r9939"
   sodipodi:docname="Blason ville be Ferrières (Belgique).svg"
   inkscape:export-filename="/Users/olivier/Desktop/Blason Rouge/Blason_Vide_3D.png"
   inkscape:export-xdpi="144"
   inkscape:export-ydpi="144">
  <metadata
     id="metadata49">
    <rdf:RDF>
      <cc:Work
         rdf:about="">
        <dc:format>image/svg+xml</dc:format>
        <dc:type
           rdf:resource="http://purl.org/dc/dcmitype/StillImage" />
        <dc:title />
        <dc:date />
        <dc:creator>
          <cc:Agent>
            <dc:title />
          </cc:Agent>
        </dc:creator>
        <cc:license
           rdf:resource="" />
        <dc:language />
        <dc:subject>
          <rdf:Bag />
        </dc:subject>
      </cc:Work>
    </rdf:RDF>
  </metadata>
  <sodipodi:namedview
     inkscape:window-height="738"
     inkscape:window-width="1280"
     inkscape:pageshadow="2"
     inkscape:pageopacity="0.0"
     guidetolerance="10.0"
     gridtolerance="10.0"
     objecttolerance="10.0"
     borderopacity="1.0"
     bordercolor="#666666"
     pagecolor="#ffffff"
     id="base"
     showgrid="false"
     height="660px"
     inkscape:zoom="0.80677985"
     inkscape:cx="428.42376"
     inkscape:cy="308.80747"
     inkscape:window-x="-8"
     inkscape:window-y="-8"
     inkscape:current-layer="layer3"
     inkscape:window-maximized="1" />
  <defs
     id="defs6">
    <linearGradient
       id="linearGradient2893">
      <stop
         style="stop-color:white;stop-opacity:0.3137255;"
         offset="0"
         id="stop2895" />
      <stop
         id="stop2897"
         offset="0.19"
         style="stop-color:white;stop-opacity:0.25098041;" />
      <stop
         style="stop-color:#6b6b6b;stop-opacity:0.1254902;"
         offset="0.60000002"
         id="stop2901" />
      <stop
         style="stop-color:black;stop-opacity:0.1254902;"
         offset="1"
         id="stop2899" />
    </linearGradient>
    <radialGradient
       inkscape:collect="always"
       xlink:href="#linearGradient2893"
       id="radialGradient3163"
       gradientUnits="userSpaceOnUse"
       gradientTransform="matrix(1.353218,0,0,1.348928,-77.62935,-85.74693)"
       cx="221.44487"
       cy="226.33101"
       fx="221.44487"
       fy="226.33101"
       r="300" />
    <style
       id="style3048"
       type="text/css">
    .str1 {stroke:#1F1A17;stroke-width:0.1764}
    .str2 {stroke:#1F1A17;stroke-width:0.3528}
    .str0 {stroke:#131516;stroke-width:0.3528}
    .str4 {stroke:#EEB300;stroke-width:0.3528}
    .str3 {stroke:#F5D300;stroke-width:0.3528}
    .fil6 {fill:none}
    .fil7 {fill:#1F1A17}
    .fil9 {fill:white}
    .fil12 {fill:#009F3C}
    .fil10 {fill:#00A03B}
    .fil5 {fill:#2DA638}
    .fil8 {fill:#4E9145}
    .fil11 {fill:#65B857}
    .fil1 {fill:#DA2724}
    .fil4 {fill:#E4A615}
    .fil3 {fill:#EFC899}
    .fil13 {fill:#F3E400}
    .fil0 {fill:#F5CB00}
    .fil2 {fill:#1F1A17;fill-rule:nonzero}
    .fil14 {fill:#EEB300;fill-rule:nonzero}
  </style>
  </defs>
  <g
     inkscape:groupmode="layer"
     id="layer3"
     inkscape:label="Fond écu"
     style="display:inline">
    <path
       style="fill:#fcef3c;fill-opacity:1;fill-rule:evenodd;stroke:#000000;stroke-width:2"
       d="m 300,658.5 c 122.64759,-52.2332 234.8393,-147.38174 278.91459,-276.41496 27.09874,-75.06043 17.91738,-155.40469 19.58542,-233.50331 0,-48.80175 0,-97.603502 0,-146.4052535 -199,0 -398.00001,0 -597.00001,0 C 1.9860253,97.107893 0.47522499,192.08246 2.3562927,286.98389 8.3956847,405.85129 78.250792,513.33424 171.67679,583.65678 211.0605,613.81154 254.05223,639.67926 300,658.5 z"
       id="path2855"
       inkscape:connector-curvature="0" />
    <g
       id="g5199">
      <path
         style="fill:#000000;display:inline"
         d="m 243.9975,15.66112 c -28.3429,1.7664 -66.1608,23.5786 -62.7772,56.03302 -2.4855,15.76306 38.4421,33.72101 9.5585,23.56073 -16.7068,-9.10348 -28.9146,15.89439 -40.1982,13.31147 -18.8932,-20.03247 -51.298,-2.1436 -58.5889,19.61972 -11.81,30.35269 24.5418,40.70104 46.7871,44.91256 16.6133,-12.90366 34.9939,7.97897 40.4842,15.19958 -16.3709,16.81051 -35.4585,-28.80337 -50.7588,-3.4855 -23.5653,1.75137 -60.9818,11.18551 -58.839,40.97416 -6.4524,21.89535 43.1825,43.97125 2.1159,50.90033 -21.1535,9.04664 -15.4813,66.32838 10.9968,52.15565 15.6264,-12.88286 34.1962,-28.45608 38.1952,-50.87914 9.3487,-24.40859 -26.8935,-33.75281 -25.9761,-51.86508 -1.2758,-18.34832 37.4788,-11.11357 12.5926,-2.26998 -9.7377,7.72844 4.0471,21.25883 9.095,9.48873 9.2139,11.87208 20.8057,22.06024 34.1398,22.92032 4.6684,11.24568 -20.7954,17.83334 -6.0148,31.29843 -19.5527,13.21167 -17.8182,40.52218 -35.7237,52.89818 -18.1391,15.65384 -22.4073,43.94706 -13.9017,65.10182 14.2192,20.88098 40.3573,20.47788 63.0758,18.06692 22.491,-2.33689 -8.7154,32.83171 15.8355,39.41932 8.4624,7.32803 36.1988,5.66333 11.5957,14.02998 -20.7886,1.1161 -40.7536,-15.13969 -59.382,3.01503 -29.9492,8.91762 7.8584,31.25061 21.2391,26.14131 22.3766,-2.14035 45.2069,-2.80186 65.4645,-13.20694 9.5443,7.31635 31.2129,13.80371 34.8489,21.08623 -28.5896,8.80069 -4.4308,48.76756 -32.2498,55.1807 -11.0999,-3.07712 -34.6887,-4.57616 -12.4789,5.34994 21.7184,8.24667 62.0449,-6.61017 50.5104,-35.45523 8.6689,-18.45617 30.7989,23.96846 48.8498,13.83521 21.287,1.38932 11.8356,-18.64683 -4.4651,-14.27497 6.2738,-2.74074 27.8119,-3.99976 37.0528,-14.6091 30.0763,0.36166 8.7977,36.51877 27.5306,46.64572 14.979,8.80048 65.4183,2.23145 52.3232,-20.38037 -14.1239,-5.01355 -43.2845,22.67317 -40.3898,-10.23658 5.4582,-17.3229 -9.7055,-35.25921 -18.4992,-42.499 16.397,7.6e-4 22.4624,-21.30625 36.0959,-5.64978 26.0849,11.6476 47.9619,-7.37746 75.0817,-2.61717 12.0577,-19.09758 -26.4915,-43.68774 -45.1324,-29.05997 -8.7528,5.82832 -28.6659,7.78773 -9.6219,-0.35377 17.0512,-16.91621 36.8993,-16.85269 59.8173,-17.35982 29.2395,-8.77962 33.4836,-53.76027 10.13,-70.67942 -29.9329,-4.39207 7.2382,-33.85951 -12.3493,-50.88988 -3.0775,-23.40769 -40.2188,-9.92921 -39.6942,-26.40178 14.7539,12.38392 42.2086,-13.8147 42.9449,15.3645 21.4037,22.77515 13.5125,-36.89918 14.8982,-22.80483 4.6564,0.56845 13.356,29.43119 38.3173,29.17706 21.2069,-12.55265 8.8151,-48.87689 -13.7931,-54.04951 -15.4057,-0.7754 12.4141,-14.83505 21.2323,-24.59536 5.2293,-5.78801 15.9439,-26.34574 -7.9167,-43.65217 -19.0683,-28.17541 -43.9341,12.69009 -62.8414,-1.7475 -7.4138,-15.16917 -11.5232,-26.13945 8.1802,-31.93813 17.1385,-14.97658 45.7671,-32.84972 24.286,-58.46332 C 481.3061,81.89922 442.4596,78.18508 433.0102,104.62039 420.7528,124.43906 397.31302,93.666991 407.8956,73.81962 419.32742,52.379528 391.35559,29.911458 371.84967,17.309212 356.15736,9.6541104 339.35518,20.56723 329.96921,30.10371 c -0.54449,5.033175 6.48859,9.822678 18.62891,13.629571 30.13118,-0.730938 46.11295,36.990859 4.87778,32.650879 -21.0381,1.57431 -20.1369,-22.44423 -40.5412,-26.47304 -12.8051,-8.04708 -32.9735,-0.55823 -46.375,2.75 9.1609,0.80194 13.7123,23.1888 -1.7655,7.08487 -5.4712,-27.66386 -12.5034,20.38744 -12.038,19.01181 -15.8734,2.89695 -59.6997,-6.03135 -32.3378,-24.59117 18.1586,-3.83674 54.8341,-4.41402 56.5829,-25.09581 -11.3774,-3.99658 -20.042,-15.01305 -33.0038,-13.4097 z m -57.28908,108.62709 c 10.2952,4.3066 19.65938,4.35174 9.38288,9.84166 4.042,15.46463 -17.3746,17.42794 -19.3013,28.26336 -6.2982,-2.35666 -32.0968,-25.50085 -6.7528,-26.11486 7.9772,-3.58588 5.64942,-12.85622 16.67122,-11.99016 z m 187.88288,-2.37709 c 12.6742,11.01102 28.4926,-5.80927 35.9939,14.72782 12.9472,11.64043 42.5751,-11.2945 29.2523,15.36282 -8.7246,17.99044 -41.7332,18.51727 -40.6698,-7.38607 -2.8111,-11.24501 -25.5147,-15.62979 -24.5764,-22.70457 z m 80.0938,0.15625 c 10.7143,2.45534 -19.9868,25.54792 -5.8438,6.0625 l 3.156,-4.69249 z m -325.875,2.1875 c 13.5167,2.43555 24.7934,14.5437 3.9374,10.3125 -4.5498,4.57914 -9.5142,-12.63717 -3.9374,-10.3125 z m 302.3437,56.375 c 15.8009,1.51706 -7.5103,9.47834 -2.7793,0.65179 z m -19.3125,11.5625 c 6.7766,2.97716 -12.1883,2.23179 0,0 z m 17.6562,11.71875 c 14.3253,2.98994 22.0995,36.27375 10.7106,36.30165 4.4633,-14.93926 -8.3853,-26.28688 -10.7106,-36.30165 z m 68.7813,15.6875 c 22.0171,13.66854 -31.2529,23.93526 -19.4687,46.59375 4.1695,14.47191 -17.0799,-5.93739 -25.4223,4.94147 -6.9767,-11.91864 15.4477,-29.47118 14.9473,-44.2026 11.7733,3.64936 20.0741,-1.4608 29.9437,-7.33262 z m -282.83,151.99854 c 18.4094,15.26428 1.6598,31.6772 -17.295,15.87646 -0.944,-6.85337 12.8567,-12.49293 17.295,-15.87646 z m 207.3925,37.12646 c 31.8992,-0.008 -6.5939,29.67217 -4.55,0.43364 l -0.044,-0.30864 4.5938,-0.125 z m -226.8125,28.8125 c 10.2721,8.63991 -20.8856,4.68052 0,0 z m 71.5937,73.15625 c 30.6095,-0.17282 -13.5878,9.09956 0,0 z m 43.7955,-1.04779 c 9.7167,8.26413 -15.3967,7.47925 0,0 z"
         id="path4740"
         inkscape:connector-curvature="0"
         sodipodi:nodetypes="ccccccccccccccccccccccccccccccccccccccccccccccccscccccsccccccccccccccccccccccccccccccccccccccccccccccccccccccc" />
      <path
         sodipodi:nodetypes="sccscccccsccccccccccccccccccccccccscccccccccccscccscccccccccccsscccccccccccccccccccccccscccccccccccccccccccccccccccccccccccccccccccccccccccccccccscccccccccccccccccccccccccccccccccccccccccccccccscccscccccccccccccccccccccccccccccccccccccccccccccccccccscccsccccccsccscccccccccccccccccccccccccccccccccccccccccccccccccccccccsccccccccccccccccccccccccccccccsccccccccccccccssssccccssccsccccccccccccccccccccccccccccccccccccccccccccccccccccccccccccccccccccccsscccccscccccccccccccccccccccccccccccccccccccccccccccccccccccccccccccccccccccccsccsccccccccccccccccccccccccccccccccccccscccc"
         inkscape:connector-curvature="0"
         id="path4742"
         d="m 359.39982,19.671773 c -10.95012,0.0083 -17.85571,6.506859 -23.41536,11.454809 4.20925,4.395019 6.09194,5.965644 16.14512,8.609638 9.01099,1.089331 12.36459,3.051191 16.5874,5.393766 C 397.3054,60.989238 386.22568,85.024011 357.6875,82.5625 342.1679,74.9002 321.8588,85.22094 328.5,103 c 4.2833,6.09041 11.47015,-26.6499 15.09375,-4.0625 9.5048,11.0076 2.8433,-21.16733 17.6875,-4.5625 65.64419,0.695116 47.61165,-56.915704 1.68241,-74.525035 -1.19195,-0.121675 -2.37883,-0.179088 -3.56384,-0.178192 z M 242.78125,21.1875 c -27.0137,0.65018 -59.9671,21.25899 -56.1875,51.5625 7.6812,25.41891 38.1976,24.57011 59.75,25.71875 20.6582,9.15804 37.4766,-6.20305 59.8125,0.8125 24.0428,-8.16035 -26.4308,-24.31334 -36.1875,-9.34375 -14.4336,6.31381 -8.2732,4.42995 -5.625,-4.5625 C 246.19185,80.2243 196.781,89.35003 207.4375,55.15625 227.5159,42.46083 255.524,48.56819 272.375,32.46875 267.7918,25.09118 250.46965,28.23738 242.78125,21.1875 z m 118.53125,4.46875 c 25.0546,7.89516 -0.9863,15.72899 0,0 z m -122.28125,3.6875 c 29.3213,6.02502 -15.2604,8.74728 0,0 z M 303.5,51.46875 c -3.5993,6.44386 -10.6135,41.34291 -11.8125,14.1875 -9.7732,-23.59182 -14.13215,-0.42454 -13.40625,9.53125 -8.4575,-11.45539 -29.7807,-18.4332 -18.375,3.4375 11.9586,12.91501 33.47845,-3.92852 48.21875,1.09375 4.1822,-9.04656 7.6124,-23.74253 -4.625,-28.25 z M 294.5625,53 c -5.9327,5.30673 5.5973,12.86333 0,0 z m 29.46875,15.28125 c -14.6086,1.40862 -8.7464,32.94838 -1.5625,8.65625 0.1485,-2.25491 4.597,-7.38322 1.5625,-8.65625 z m 136.1875,20.9375 c -20.59442,0.131295 -26.75162,42.37834 -47.03125,20.84375 -14.8807,-15.66006 -37.631,4.29944 -55.6875,1.625 -11.5438,9.99428 -9.57135,16.74462 5.46875,9.21875 6.1937,-12.65276 29.2434,7.75126 25.75,-9.625 18.3529,7.29932 35.76355,38.50681 53.46875,10.5 4.8448,-32.3094 49.27835,-6.61519 27.21875,8.59375 -18.0473,-6.43051 -39.66605,45.31937 -13.71875,30.53125 13.508,-1.94193 -4.3495,-24.54111 13.125,-14.71875 8.8554,6.35351 -4.3247,-16.68777 11.0625,-13.65625 22.1488,-10.42645 13.05485,-41.69446 -11.40625,-42.625 l -3.9375,-0.125 c -1.50982,-0.397026 -2.93954,-0.571253 -4.3125,-0.5625 z m -62.75,1.375 c -12.7883,3.86399 -22.5696,13.28608 -4.6875,5.09375 1.0766,-1.58032 4.8383,-2.56755 4.6875,-5.09375 z M 180.22899,98.799369 C 166.6538,102.28821 153.25485,122.62661 140.78125,104.3125 120.99785,95.31226 97.6186,115.26401 95.6875,134.75 c -3.5898,27.22814 25.66875,26.18084 42.03125,32.78125 14.8544,-7.45434 31.01005,-2.36272 37.34375,10.28125 6.2409,-10.94578 -11.38035,-18.38358 -17.59375,-16.28125 7.1705,-25.19521 -24.3694,-21.61035 -38.625,-20.96875 -20.8912,-24.78696 22.0753,-29.55364 32.6875,-10.03125 19.50484,9.9869 20.52723,-12.98737 43.625,-16.3125 9.639,15.35879 16.02545,2.43913 15.96875,-6.53125 11.8076,7.16436 2.31195,-10.12828 16.96875,1.96875 10.3184,1.44277 23.3266,-9.46993 3.75,-6.125 -10.21675,-3.558352 -16.81387,1.60209 -25.18514,0.86455 -9.18188,-0.80896 -19.93189,-7.266358 -26.42962,-5.596431 z m 183.55226,1.294381 c -21.7116,2.0044 17.7988,3.73477 6.8125,0.125 L 366,100.09375 z m -81.375,1.96875 c -31.6746,3.69832 3.97895,25.26143 12.46875,14.6875 -0.026,-7.82746 -3.17675,-15.15941 -12.46875,-14.6875 z M 341.5,106.28125 c -18.9908,1.41421 -5.2908,23.39757 0.125,9 11.1065,-0.52242 11.4586,-6.93391 -0.125,-9 z M 256.375,106.5 c -16.0095,7.30161 -29.00675,17.38004 -46.59375,22.28125 14.0222,5.91966 -14.26645,12.32389 3.21875,12.71875 19.3268,12.31584 31.18585,-0.33999 42.71875,-13.875 10.2533,-2.75516 29.15015,-3.34436 8.78125,-7.21875 -11.3919,-0.70497 -35.1943,11.76625 -12.5625,-1.1875 10.3435,-1.56719 20.573,-6.78464 4.4375,-12.71875 z m 49.9375,2.75 c -25.7069,4.92539 21.76375,14.52989 6.03125,0.5625 l -2.71875,-0.40625 z m -82.5,5 c -14.9754,6.52397 23.1447,4.96159 0,0 z M 330,121.6875 c -0.37674,-1.4e-4 -0.74434,0.0142 -1.125,0.0312 -18.25871,1.34272 -34.96256,13.57229 -50.1875,4.5625 8.72858,6.8045 5.70278,20.48446 -1.34375,4.34375 -20.5391,-13.57882 -26.0341,14.80815 -37.625,17.15625 -12.9811,-7.2699 -27.36455,16.78844 -30.46875,-1.28125 -27.9257,-1.78094 -25.4779,20.97178 -23.375,42.9375 -16.7074,30.53731 -29.71055,-15.50765 -49.53125,-6.84375 -11.4075,9.19133 -42.04865,8.94468 -56.78125,24.1875 -6.6358,9.08904 -3.081,22.75501 -6.5,30.25 8.8434,11.2649 37.27985,38.90237 4.90625,39.125 -21.2201,7.56673 -15.05225,42.16197 -4.09375,52.3125 14.2067,-5.77097 11.55695,-5.7766 6.03125,-12.53125 -1.0192,-9.33486 7.1472,-35.10959 14.8125,-17.78125 13.612,-11.31052 25.34105,-41.84567 6.71875,-51.28125 -21.4278,-15.57907 -9.1768,-49.64864 18.25,-34.34375 12.5055,17.48748 14.4154,-17.03192 21.875,-0.59375 -8.0066,9.28365 -5.24705,16.9073 2.90625,3.375 4.5906,-1.67712 -15.07015,26.67075 3.46875,31.625 18.3003,16.06552 -13.18905,23.38888 -1.78125,40.46875 -6.592,11.35227 -33.00745,37.38376 -17.84375,44.03125 -5.6638,-14.36232 33.5416,-25.74912 15.5,-14.59375 -24.1108,8.0645 2.09695,54.12226 9.78125,24.125 9.2917,-13.08654 46.37775,19.36176 33.84375,-6.78125 -13.0148,5.54784 -39.3257,-11.82816 -11.5,-6.65625 22.7809,2.00757 11.4149,-19.09099 -2.25,-24.40625 -9.9209,-22.0869 42.9087,-15.7755 14.5,-35.375 -7.6893,4.41157 -43.5708,3.87183 -32.3125,28.0625 6.8162,8.99009 -15.43125,1.36319 -8.28125,-4.28125 -0.2604,-16.20058 20.39975,-23.622 22.96875,-25.21875 -20.2551,-8.62178 -25.24725,-42.38755 -6.21875,-53 -10.369,11.38358 -12.3955,42.62811 4.4375,43.90625 -6.2329,-29.67425 35.27805,-20.3747 33.03125,-47.96875 -3.2281,-13.84192 28.41375,-33.16308 10.21875,-13.4375 -6.5883,15.47346 -11.7551,45.72467 -31.6875,41.40625 -13.628,8.25955 -1.02095,43.1916 1.03125,15.4375 8.6615,-14.56207 32.38675,-12.3385 27.96875,-35.75 1.545,-12.28214 40.01195,-21.44234 14.40625,-8.25 -16.3229,12.38992 -21.1081,38.39138 -17.875,57.84375 5.5672,9.98246 22.2696,-17.8738 37.375,-12.5625 10.1765,-3.46838 -13.14555,-9.4239 8.96875,-5.96875 13.31,-11.22634 9.7204,-4.01498 13.5625,9.78125 13.3488,3.13377 15.80865,-14.6013 27.78125,-1.375 15.1742,-3.35877 19.45025,-37.49846 31.09375,-13.90625 23.0281,-4.6027 44.1791,-0.38103 55.375,22.0625 12.1426,0.389 -16.43945,-50.15911 0.40625,-40.125 9.8268,-11.38151 -20.30125,-33.61823 4.46875,-19.09375 3.9115,10.75562 25.4756,19.65555 16.4375,1.5625 -13.6209,1.39848 -25.29895,-14.68658 -32.09375,-16.90625 -3.9596,-8.2995 3.5187,-39.62486 -16.8125,-48.5625 -6.947,-7.75208 -43.5866,-14.39138 -15.1875,-10.78125 30.9747,4.80897 31.05115,41.23927 53.65625,55.28125 17.9831,15.19909 45.2809,-29.44653 51.75,1.1875 -3.5807,10.49949 -35.02825,7.14504 -12.53125,12.375 28.5963,7.79838 31.59035,-29.9378 4.90625,-30.15625 -5.0408,-10.55566 -44.569,0.41964 -18.125,7.78125 -7.753,8.04407 -17.75635,-12.07606 -24.53125,-4.15625 3.4003,-21.72615 -15.44985,-37.65461 -32.09375,-36.3125 C 351.49546,129.8162 341.67881,121.69183 330,121.6875 z m -53.21875,3.34375 c 0.62361,0.44827 1.24639,0.84528 1.875,1.21875 -0.57256,-0.44362 -1.19967,-0.84434 -1.875,-1.21875 z m 81.75,1.34375 c 2.5678,4.95479 31.2134,9.62623 37.5,24.8125 -3.2678,-15.76457 -22.9747,-24.09358 -37.5,-24.8125 z m -120.4375,2.375 c -0.2794,6.40962 -8.8542,7.79644 0,0 z m -114.25,0.0937 c -7.1931,6.50389 6.0552,7.60988 0,0 z m 195.71875,6.2813 c 30.8211,1.34188 45.6183,34.02912 37.5,60.375 8.2759,10.39991 23.1703,13.01899 8.875,28.90625 -8.0257,-11.9329 -7.62785,-0.66897 -16.84375,-8.90625 -5.9744,9.35177 2.53105,-20.12594 -3.65625,-5.46875 -9.1242,-10.8761 4.789,25.20922 -6.4375,2.78125 -0.8564,-4.43186 -1.4132,18.71884 -4.5625,4.03125 -11.5498,17.88511 -6.94265,-4.68978 -4.21875,-8.96875 10.5291,-11.23307 -23.4829,-37.33495 -24.875,-8.46875 -2.2341,8.1551 -4.9113,46.60852 -10.8125,23.3125 -1.9961,-13.89279 15.38235,-33.24352 4.21875,-42.5625 -12.4602,-15.66367 -24.3665,24.37169 -24.4375,11.75 0.049,-4.28498 -24.381,-18.36778 -30.1875,3.1875 -5.74881,13.68761 -2.25704,-10.28465 1.71875,-14.3125 -9.68076,4.46923 -25.11351,25.38579 -15.03125,3.28125 16.17057,-9.49242 48.30304,-9.57035 46,-31.15625 1.71151,9.29154 7.13944,19.18293 -1.875,16.75 -26.6828,14.7507 20.8724,10.54735 11.625,-9.78125 -1.8137,-21.90693 13.45135,15.68297 26.71875,9.625 21.6462,1.55508 35.96825,27.01145 30.40625,34.15625 9.4863,-2.86347 14.71875,17.42568 9.40625,-3.3125 C 342.72545,184.5197 348.9846,157.41682 320,157.5625 310.4931,160.7594 281.68295,143.98778 306.46875,152 c 19.1309,-4.99389 41.77245,17.32157 46.84375,21.25 2.7369,-24.66008 -32.60865,-35.2724 -43.65625,-37.09375 3.3382,-0.016 6.59355,-0.77609 9.90625,-1.03125 z m -73.71875,45.65625 c 0.45872,-0.21177 0.91423,-0.39972 1.34375,-0.53125 -0.44339,-0.12801 -0.89997,0.0817 -1.34375,0.53125 z m 55.9375,-44.71875 c 4.9335,2.43628 -5.4299,3.52367 0,0 z m -94.0625,12.6875 c -8.155,11.2539 -15.829,7.81252 0,0 z m -75.59375,1.53125 c 19.6479,5.28115 -0.5218,14.30103 0,0 z m 62.125,8.125 c -3.4771,9.95301 -13.6331,10.39978 0,0 z M 225.375,164.5 c 8.33982,0.3472 -28.40682,6.85247 -15.625,1.78125 L 214,165.25 l 4.78125,-0.46875 c 3.30783,-0.2539 5.40235,-0.33085 6.59375,-0.28125 z m 67.15625,1.71875 c -2.5372,10.42956 28.2005,17.77353 33.4375,11.96875 -10.63,-5.55611 -22.6712,-7.00879 -33.4375,-11.96875 z m 81.78125,10.875 c -9.7826,27.72498 44.4369,16.41863 33.125,44.96875 8.8303,14.79289 -0.73355,27.00777 -3.65625,41.125 20.3145,10.48464 24.7351,16.15587 39,30.4375 12.6553,-6.73787 26.61915,-2.31204 37.65625,-4.375 2.289,-26.19476 -25.29585,-7.72133 -36.65625,-10.75 -19.9695,-11.74116 -17.88925,-28.82979 -9.03125,-46.15625 -0.1834,-26.83012 -27.0228,-35.8619 -47.6875,-43.40625 -5.6635,-2.44876 -9.1248,-7.80168 -12.75,-11.84375 z m -179.40625,2.375 c -2.6295,16.61413 -9.164,16.9575 0,0 z m 28.875,2.34375 c 5.7547,3.48363 -7.7038,2.99984 0,0 z m 103.0625,0.25 c -4.1741,4.62543 8.7332,4.40554 0,0 z M 500.5,186.875 c -12.39,11.71827 -30.3132,14.90124 -44.25,12.0625 3.4576,20.84288 24.2368,27.95269 39.1875,13.125 22.6833,-0.49932 15.97305,24.66222 9.78125,26.53125 -29.9164,3.80493 -30.7731,35.29079 -0.8125,53.75 17.3418,33.31304 24.978,20.65271 28.4375,-2.6875 1.3851,-22.62576 -56.6878,-25.25057 -20.5,-42.21875 18.0831,-12.4395 32.4973,-34.9729 10.3125,-50.1875 -6.19,-6.45793 -14.05445,-8.07021 -22.15625,-10.375 z m -219.28125,8.53125 c 9.4643,9.31507 -0.395,52.27121 -1.6875,18.4375 5.8472,-11.22541 -15.1808,-18.46896 1.6875,-18.4375 z m -140,0.71875 c 1.8643,3.52267 -7.8301,2.23803 0,0 z m 106,3.375 c 10.2308,16.58242 -9.36925,44.14438 -8.78125,15.53125 7.3528,2.51132 3.38765,-12.02434 8.78125,-15.53125 z m -31.625,1.75 c 2.4552,7.67651 -10.7313,15.43119 0,0 z m 120.03125,1.8125 c -1.9085,4.32261 1.8051,7.53971 0,0 z m 114.9375,0.0625 c -23.8471,0.93923 17.8163,32.87424 -4.25,46.5 -16.9545,5.12734 -2.68885,34.90915 0.46875,12.125 13.644,-16.66284 25.37695,-43.61519 3.78125,-58.625 z m -272.40625,0.3125 c 18.485,1.10107 -24.8465,7.14696 0,0 z m -12.21875,6 c 9.2215,3.14414 -5.3074,5.49671 0,0 z m 201.25,5.15625 c -8.8071,7.81444 6.7236,4.68975 0,0 z m 4.59375,5.6875 c 4.971,6.22584 -8.0247,6.27778 0,0 z m -251.1875,2.03125 c -11.18416,-0.0927 -20.51296,15.13929 -3.375,6.875 10.5177,-0.0395 26.14735,36.61293 20.96875,9 -0.6805,-9.21732 -6.9969,-15.82353 -16.5,-15.8125 -0.36381,-0.0361 -0.73297,-0.0595 -1.09375,-0.0625 z M 400,227.25 c -6.6204,11.84773 5.555,31.03421 5.625,7.78125 -0.2593,-3.25027 -2.0812,-7.12848 -5.625,-7.78125 z m -140.71875,6.625 c 6.8833,20.48653 -48.1348,-1.55253 -15.875,7 6.4403,0.89868 12.1191,-2.70825 15.875,-7 z m -35.21875,3.5 c 11.21645,-0.81258 -25.43111,19.30068 -9.9375,4.8125 2.5693,-1.88359 5.3302,-4.36893 8.6875,-4.65625 0.46478,-0.0716 0.88818,-0.13004 1.25,-0.15625 z m 9.40625,6.0625 c 13.427,3.50431 -7.179,1.93305 0,0 z m 118.875,0.46875 c -9.9502,1.1246 12.91805,10.16202 -5.65625,5.21875 -14.7724,-4.00427 -20.7665,1.10839 -9.125,7.71875 4.3775,-9.31174 48.64235,19.71953 26.40625,-6.75 -3.1268,-3.07219 -7.035,-6.02732 -11.625,-6.1875 z m -144.625,5.78125 c 6.0589,5.49795 -6.45165,18.23072 -1.09375,1.8125 z m -10.3125,2.9375 c -2.1573,10.25991 4.243,11.36222 0,0 z M 323.84375,256 c -10.6372,6.14989 -18.9054,36.07151 -6.3125,16.96875 0.3658,-5.78534 17.9088,-13.70165 6.3125,-16.96875 z m 17.75,4.6875 c -4.57151,-0.0519 16.42989,14.13077 19.59375,17.1875 -3.07194,-8.60797 -11.20512,-14.45024 -19.59375,-17.1875 z m 19.59375,17.1875 c 0.068,0.19063 0.15576,0.36915 0.21875,0.5625 0.3248,0.0522 0.20632,-0.15182 -0.21875,-0.5625 z m 38.65625,-12.46875 c -6.6534,11.69951 7.3231,11.31401 0,0 z M 198.9375,266.3125 c 1.3091,10.05634 15.3929,32.14167 5.4375,8.59375 -1.5968,-2.97483 -2.8619,-6.26988 -5.4375,-8.59375 z m 180.90625,2.625 c 1.2636,12.14223 15.4591,7.16456 0,0 z m -43.08325,-2.0218 c -35.02814,13.95703 17.32715,24.06036 18.45825,12.8968 -4.3667,-4.70682 -12.06205,-12.49915 -18.45825,-12.8968 z m -81.72925,5.11555 c -2.2207,6.939 2.7115,2.75825 0,0 z m 156.6875,2.09375 c -8.0563,25.89455 16.934,6.01151 0,0 z m -134.9375,2.46875 c 0.3035,7.69171 -10.3965,7.28674 0,0 z m 123,3 c -4.5458,21.48286 -7.3416,46.00882 -6.6875,69.03125 -8.0402,12.16511 -3.25625,22.03088 2.71875,4.84375 11.4137,-21.58005 3.8451,-46.41571 5.375,-69.375 L 400.8125,281.5 z m -59.43568,153.32742 c 2.51758,-23.7403 20.46828,-35.76914 14.06068,-56.04617 1.9831,-15.99614 4.5577,-16.50835 -2.5625,-31.90625 10.65,-13.54929 -1.28785,14.03286 8.28125,-0.5 7.8411,-16.54772 -0.0171,15.06521 10.6875,-1.75 16.4063,-8.10571 27.16745,-38.30205 7.90625,-49.8125 -4.8336,-1.80011 -10.7629,-6.87983 -9,-10.9375 -10.9839,4.71632 -25.3221,24.19098 -33.625,6.5 10.2677,8.34072 30.5828,-0.35457 7.5,-1.28125 -9.2424,-0.48609 -35.15315,-4.96035 -12.53125,3.875 7.4828,12.90516 -11.23685,11.05798 -11.28125,14.875 -2.2434,26.76038 24.347,43.45746 20.3125,69.40625 1.22884,9.42512 -1.84479,21.5474 -5.79997,37.03097 l -2.73335,10.70041 c -1.76892,-7.33798 -2.87789,-14.59327 0.16778,-19.96178 -5.2596,-15.37932 -23.59176,13.24776 -33.82196,0.69915 -9.2601,-2.58181 -43.53825,7.55706 -16.65625,-1.96875 9.5559,-4.74834 44.16525,6.87921 25.21875,-7.46875 -11.6854,-8.42048 -36.195,-0.17966 -36.9375,0.9375 0.5181,-9.6257 2.1479,-38.76159 -7.125,-26.09375 1.929,11.52373 0.3141,40.60672 -0.75,12.0625 -8.6379,-15.688 1.9364,-37.22724 19.0625,-20.9375 13.3746,2.17901 22.8717,8.55677 2.875,4.03125 -8.791,-11.25613 -30.1266,-6.21814 -10.3125,2.53125 14.5249,14.62712 42.7697,-14.97533 46.9375,7.8125 C 327.03135,354.49 306.7927,359.50061 301.6875,365 c 20.4507,-22.51097 28.82435,7.41769 24.84375,24.84375 5.939,6.74325 12.2513,-40.79196 -5,-46.625 -9.9185,3.28873 -19.24975,-6.97638 -22.90625,9.03125 -18.1756,2.47407 -30.78885,-26.53135 -46.59375,-3.96875 -9.9057,5.79154 -3.79265,17.67417 -4.46875,26.9375 2.262,11.02959 4.9883,39.99785 -2,12.3125 -10.324,-24.80662 2.1725,-43.76845 11.9375,-64.75 8.3646,-17.9461 -6.24625,29.16694 14.21875,10.75 8.8214,12.39242 21.68025,20.52393 24.46875,-1.34375 -3.4551,-18.36691 12.67675,-36.56816 -3.71875,-56.5625 -31.5432,0.59796 27.7864,-3.07155 -0.125,-12.65625 -13.2472,1.399 -16.81775,3.89607 -28.21875,-1.90625 2.2633,10.74057 -7.87765,14.9725 -0.0312,19.5625 -9.2367,2.23113 -19.35695,2.11273 -13.90625,-7.09375 -10.8281,-13.22879 -28.2599,3.94726 -32.6875,6.0625 4.5351,-15.33666 23.316,-19.3595 33,-20.375 -2.7109,-1.99452 -6.1815,-2.42522 -9.4375,-2.375 -1.30491,-0.199 -2.59771,-0.28449 -3.875,-0.25 l -5e-5,0 c -19.15932,0.5173 -34.27191,26.04075 -16.875,37.96875 -16.6609,6.25697 -15.1131,51.19205 3.625,50.875 5.9574,-2.31004 -1.4625,33.15857 6.125,43.09375 7.0088,12.4722 16.78755,33.46092 22.09375,40.6875 -4.258,-22.78189 12.25,22.21459 19.625,24.4375 16.6112,1.37853 69.58757,10.78618 63.19587,-16.09048 z M 247.27329,284.21248 c 2.44621,3.15012 -16.4393,3.13103 -18.34642,3.06083 -2.28837,0.43733 -13.91953,-5.44173 -9.31279,-6.74089 -3.19204,3.06691 18.91113,7.94654 25.15921,4.99256 0.2813,-0.39203 1.04221,-0.84255 2.5,-1.3125 z m 271.16826,-2.41643 c 1.5543,0.0845 3.60723,1.40661 5.15886,3.56781 2.06885,2.88162 2.48091,6.09497 0.96427,7.18384 -1.51664,1.08887 -4.39177,-0.3487 -6.46063,-3.23032 -2.06885,-2.88162 -2.52912,-6.09496 -1.01248,-7.18383 0.37915,-0.27222 0.83188,-0.36565 1.34998,-0.3375 z M 259.625,284.5625 c 13.2947,12.08751 -42.4064,25.46508 -35,5.53125 18.5792,4.28014 15.2025,-0.58352 35,-5.53125 z m -55.25,3.03125 c -7.5386,11.42273 7.7012,9.34049 0,0 z m -10.75,0.8125 c -12.70413,0.48481 -23.04685,18.44935 -5.375,16.84375 2.1491,-5.30264 11.76555,-11.76329 10.90625,-15.875 -1.83562,-0.7523 -3.71637,-1.03801 -5.53125,-0.96875 z m 230.59375,0.0312 c -25.5298,5.01874 -7.3422,43.45427 14.8125,40.0625 17.0417,-6.62411 30.5007,38.38994 31.375,7.96875 1.637,-29.71553 -29.9533,-20.57889 -43.625,-32.75 -4.7407,-3.95127 2.1099,-12.17474 -2.5625,-15.28125 z m -54.625,0.625 c 9.1266,15.28372 -34.08235,20.50912 -6.53125,8.59375 4.3739,-1.07572 3.60045,-6.75042 6.53125,-8.59375 z m 112.6875,5.28125 c -17.6759,12.35907 7.9529,20.92157 0,0 z m -378.34375,3.7188 c -9.2308,4.3264 -17.907,23.3119 -3.75,7.09375 -0.024,-1.5845 6.9058,-5.38469 3.75,-7.09375 z M 313,300.125 c -9.1482,4.58019 4.1642,3.43472 0,0 z M 270.8125,302 c 2.5848,3.14949 -2.2132,5.36996 0,0 z m 38.78125,18.78125 c -0.22946,0.002 -0.45106,-10e-4 -0.6875,0.0312 -18.7788,9.86141 20.6183,31.04191 7.875,6.125 -1.1055,-2.9341 -3.74554,-6.18769 -7.1875,-6.15625 z m -39.1875,2.125 c 3.2324,3.14264 -9.151,2.96178 0,0 z m 83.90625,2.875 c 3.9374,16.68468 -13.68875,8.12258 -6.65625,0.4375 0.1488,8.77133 2.04185,0.0873 6.65625,-0.4375 z m -156.25,1.15625 c 0.7386,11.44164 2.55225,20.76738 -9.46875,26.28125 l 2.03125,6.5 c 18.5429,16.44332 -38.7158,24.34453 -16.75,48.09375 19.9458,0.0693 38.56355,7.4113 36.40625,28.75 30.0107,3.59776 16.2498,-37.82192 -3.9375,-40.90625 -24.6917,-5.84384 -3.6096,-25.55315 9.1875,-29.03125 -4.5684,-10.43286 -12.37885,-38.5064 -17.46875,-39.6875 z m 216.28125,3.5 c 5.4608,19.5775 -0.90115,33.98736 -17.21875,46 -12.6576,30.31323 24.2449,24.99627 40.125,30.9375 4.6884,15.64185 7.9782,10.38643 14.625,4.1875 6.3063,26.68897 36.22065,-18.48436 9.21875,-24.6875 -14.5997,-6.63003 -24.7365,11.75436 -37.875,0.875 9.2073,-10.31101 12.06215,-10.37256 -1.96875,-7.40625 11.0885,-6.35644 15.3702,-46.56577 28.5,-37.6875 -20.3579,7.6463 -2.61275,27.74073 7.34375,9.5625 6.3688,-26.31744 -31.4131,-8.81299 -42.75,-21.78125 z m -56.5,0.25 c 5.8842,10.74367 -10.6524,9.89132 0,0 z m -234.625,7.53125 c -7.42402,0.19105 -18.10065,9.24199 -23.5,18.6875 -10.7842,13.94147 -9.84305,51.18982 10.15625,49.3125 1.9084,8.17547 10.1156,1.76982 13.1875,10.34375 3.5689,-10.41858 6.9032,7.93098 15.25,1.09375 10.4063,4.33697 22.81615,1.91299 34.15625,3 -17.9281,21.441 4.37165,57.14141 30.21875,40.3125 14.7248,-16.67285 -1.44395,15.8713 -9.09375,17.71875 -23.0975,8.47696 -47.05365,-14.62702 -68.21875,5.8125 7.0633,13.06563 -18.00715,1.93828 -0.65625,11.03125 22.5022,2.24906 51.7333,5.96853 75.5625,-4.25 21.69,-3.1104 32.8714,-45.66461 10.375,-47.4375 -12.5527,10.95822 -5.0527,1.90716 -4.0625,-4.75 -13.4471,3.91642 -34.00495,25.05223 -31.09375,-2.53125 5.4022,-20.35589 39.8392,8.37374 26.4375,-18.84375 -13.567,-9.40991 -26.959,8.84795 -33.75,-13.625 2.7961,-20.0639 -26.28705,-3.69746 -32.71875,-23 -19.3569,-7.76942 28.1218,1.02188 10.125,-20.1875 -21.513,-33.89016 -48.4592,29.14046 -18.3125,38.5625 9.9155,5.7673 32.4256,-2.99499 9.25,-3.9375 -25.8665,-10.6224 19.63595,-1.71737 18.15625,-0.125 -8.5936,4.16857 22.61115,11.2407 3.28125,10.21875 -22.8938,5.48246 -55.3221,-7.52741 -46.125,-36.03125 2.5311,-12.80821 12.3146,-27.42354 18.6875,-25.34375 -1.22003,-4.36778 -3.93795,-6.11809 -7.3125,-6.03125 z m 42.25,6.09375 c -7.04336,0.28421 -12.71975,5.46734 -14.6875,17.40625 9.7165,16.13954 -26.68465,19.31329 -3.46875,26.625 19.7588,11.15902 34.161,-15.07943 46.0625,-22.25 -1.4732,-2.41538 -5.45225,-3.36982 -5.71875,-6.5625 l -1.9375,-5.78125 c -6.75234,-6.13394 -14.03527,-9.68828 -20.25,-9.4375 z m 222.40625,6.28125 c -7.5266,13.51459 -27.2524,14.81994 -28.625,33.625 3.9477,11.81702 -0.1725,28.86647 -7.5,27.71875 -3.6192,23.84712 5.19255,-2.0922 12.65625,2.75 12.5987,-17.89445 9.9121,-43.08909 23.6875,-58.15625 -0.1753,-1.10707 3.81085,-6.21047 -0.21875,-5.9375 z m -183.3125,2.21875 c 10.477,7.73986 7.3823,25.63532 0,0 z m -73.8125,5.78125 c 2.54049,-0.0968 -10.77522,14.04029 -7.96875,24.625 -3.16725,-8.7369 -1.57422,-21.76719 7.96875,-24.625 z m 307.78125,1.875 c -2.9181,9.51846 22.29695,28.92075 7.84375,7.46875 -1.1701,-3.41504 -4.06665,-6.96267 -7.84375,-7.46875 z m 25.5,1.28125 c -19.5937,1.30372 -10.56565,18.98258 3.84375,9.4375 1.366,-3.13683 0.42075,-9.10995 -3.84375,-9.4375 z M 297.8125,372.6875 c -13.7686,5.99517 13.3359,4.72868 0,0 z M 305.21875,373 c -0.9372,6.89566 6.7988,2.78878 0,0 z m -20.09375,1.25 c -7.9761,4.39899 10.1448,3.00213 0,0 z m 179.25,4.9375 c -4.9039,2.32573 6.8305,0.58981 0,0 z m -78.15625,0.4375 c -7.5178,8.54205 2.7165,1.86547 0,0 z m 92.84375,4.25 c -17.3972,3.82428 10.7779,31.13389 -12.5,38.5 -11.2014,3.2854 -28.05665,11.31045 -5.09375,10.03125 14.3914,2.30193 20.038,-10.26789 22.25,-17.84375 9.2116,-1.45149 1.0543,-14.35415 4.9375,-14.90625 -0.1482,-6.51597 -7.97025,-7.0749 -3.90625,-14.21875 l -2.6875,-1.25 z m -88.875,6.21875 c -8.0757,23.65221 -27.56085,38.80897 -41.34375,59 -5.0681,15.1682 -25.1686,19.89273 -33.1875,19.65625 13.8963,15.45078 39.8124,-3.82286 49.5,-15.09375 1.8587,-12.65556 14.49205,-29.71543 7.59375,-27.21875 6.9162,-9.14481 35.55265,-12.7577 13.15625,-4.5 -10.5929,13.96339 -24.7476,35.10143 -8.5625,53.03125 14.5086,19.64384 42.631,19.39941 60.4375,4.6875 13.0569,1.97388 40.1039,8.79468 20,-11.625 -21.0516,-20.39967 -42.91855,12.34033 -63.71875,-1.6875 -19.9186,-4.80242 2.06005,-53.81724 -2.65625,-21.40625 5.2082,-7.86034 25.0555,-28.7481 14.75,-5.1875 -5.4194,9.88691 -24.37385,10.78306 -8.28125,24.0625 14.53,-11.49019 33.8774,-21.58839 41.75,-38.34375 -19.1212,14.83824 -20.3489,-12.06384 -27.1875,-16.625 -11.8784,0.0655 -17.3931,-9.68921 -22.25,-18.75 z m -168.0625,6.25 c -0.4097,8.60526 13.0131,2.57883 0,0 z m 44.0625,2.28125 c 1.8594,7.59908 -1.8674,4.34641 0,0 z m -36.28125,3.15625 c -11.1512,7.21395 11.8366,11.01193 -1.5,3.03125 1.6441,-0.44927 5.6862,-2.43996 1.5,-3.03125 z m 87.25,8.03125 c -6.4663,17.36767 -30.38295,1.78532 -45.59375,4.96875 12.6732,-5.8594 32.67015,5.39867 45.59375,-4.96875 z m -49.5,1.21875 c 5.2689,5.12587 -0.7741,5.94062 0,0 z m -31.90625,4.375 c 7.0074,15.97042 -18.935,21.24016 -10.1875,34.375 11.4043,22.86618 40.9992,27.63321 63.0625,33.3125 9.5601,-16.77085 38.7782,25.41033 21.375,35.59375 -26.3645,12.24993 14.29675,19.27462 17.84375,-0.96875 10.7294,-25.30006 -13.6266,-55.30637 -40.6875,-47.28125 -31.3914,6.94129 -34.56455,-28.65961 -44.40625,-48.1875 -0.9011,-3.29887 -3.8542,-5.7683 -7,-6.84375 z m 44.90625,3.8125 c 11.84408,-0.38877 34.7222,9.32336 25.84375,11.96875 -0.5554,-9.2477 -43.4955,-7.23632 -30.125,-11.125 1.11661,-0.51744 2.58924,-0.78821 4.28125,-0.84375 z M 449.25,435.78125 c -13.3882,4.0928 13.0028,2.94784 0,0 z m -161.3125,1.65625 c 0.28555,-0.0109 0.5416,-0.009 0.78125,0 23.9757,5.17896 5.0224,5.06867 -5.6875,3.125 0.042,-2.38963 2.90739,-3.04845 4.90625,-3.125 z M 180.3125,440.5 c -6.8497,7.15683 6.2852,3.25113 0,0 z m 50.625,1.5625 c 9.9232,12.89259 -8.6485,13.32773 0,0 z m 132.25,24.1875 c -12.361,8.62121 -43.61875,9.12014 -27.34375,29.4375 4.1945,12.41751 -8.695,29.69791 12.4375,26.34375 25.3425,10.60986 -3.58745,52.52528 31.21875,45.9375 8.9787,5.98867 37.11585,-11.20044 19.78125,-9.4375 -24.8161,17.51071 -33.39715,-15.6855 -29.03125,-34.71875 0.2932,-17.64636 -46.31385,-28.47628 -9.28125,-34.71875 15.4271,-2.39409 15.41825,-17.75601 2.21875,-22.84375 z m 76.6875,4.21875 c 38.083,5.85753 -22.4747,8.64379 0,0 z m -208.75,0.40625 c -24.6831,23.85915 24.1543,37.66006 42.625,32.28125 7.0008,10.49585 16.015,-7.67048 27.875,-8.21875 -1.3297,8.99687 -39.8259,25.46806 -22.5625,46.53125 5.4432,14.78499 51.23065,3.75851 21.34375,0.5625 -26.2636,-12.61656 24.96575,-34.31668 2.84375,-50.59375 -6.5788,-10.68875 -22.6484,5.02845 -36.25,-5.15625 -14.9012,-2.09716 -22.9191,-14.49504 -35.875,-15.40625 z m 55.46875,5.90625 c 10.7023,3.26913 -5.4055,4.04372 0,0 z M 148.25,486.4375 c 19.4797,5.12576 -11.9778,7.73616 0,0 z m 115.34375,29.125 c -2.45299,-10e-4 -5.36101,0.30693 -8.75,0.90625 -20.5035,3.30433 -25.5257,40.93068 -15.4375,46.875 17.0887,-9.40666 3.3332,-52.41423 33.3125,-26.84375 3.6517,-14.95425 1.50463,-20.9324 -9.125,-20.9375 z m 146.46875,37.375 c -3.5441,8.74592 13.1846,7.43823 0,0 z"
         style="fill:#e20909;display:inline" />
    </g>
  </g>
  <g
     inkscape:groupmode="layer"
     id="layer4"
     inkscape:label="Meubles"
     sodipodi:insensitive="true" />
  <g
     inkscape:groupmode="layer"
     id="layer2"
     inkscape:label="Reflet final"
     sodipodi:insensitive="true">
    <path
       sodipodi:nodetypes="cccccc"
       d="M 300.00001,658.5 C 300.00001,658.5 598.50001,546.17969 598.50001,260.72817 C 598.50001,-24.723334 598.50001,2.1764865 598.50001,2.1764865 L 1.5,2.1764865 L 1.5,260.72817 C 1.5,546.17969 300.00001,658.5 300.00001,658.5 z "
       style="opacity:1;fill:url(#radialGradient3163);fill-opacity:1;fill-rule:evenodd;stroke:none;stroke-width:1px;stroke-linecap:butt;stroke-linejoin:miter;stroke-opacity:1"
       id="path2875"
       inkscape:export-xdpi="144"
       inkscape:export-ydpi="144" />
  </g>
  <g
     inkscape:groupmode="layer"
     id="layer1"
     inkscape:label="Contour final"
     sodipodi:insensitive="true">
    <path
       sodipodi:nodetypes="cccccc"
       d="m 299.99999,658.50028 c 0,0 -298.49999,-112.32036 -298.49999,-397.772 0,-285.451616 0,-258.5517843 0,-258.5517843 l 596.99999,0 0,258.5517843 c 0,285.45164 -298.5,397.772 -298.5,397.772 z"
       style="fill:none;stroke:#000000;stroke-width:3.00000048;stroke-linecap:butt;stroke-linejoin:miter;stroke-miterlimit:4;stroke-opacity:1;stroke-dasharray:none"
       id="path1411"
       inkscape:export-xdpi="144"
       inkscape:export-ydpi="144"
       inkscape:connector-curvature="0" />
  </g>
</svg>
