<?xml version="1.0" encoding="UTF-8" standalone="no"?>
<svg
   xmlns:dc="http://purl.org/dc/elements/1.1/"
   xmlns:cc="http://creativecommons.org/ns#"
   xmlns:rdf="http://www.w3.org/1999/02/22-rdf-syntax-ns#"
   xmlns:svg="http://www.w3.org/2000/svg"
   xmlns="http://www.w3.org/2000/svg"
   xmlns:sodipodi="http://sodipodi.sourceforge.net/DTD/sodipodi-0.dtd"
   xmlns:inkscape="http://www.inkscape.org/namespaces/inkscape"
   id="svg557"
   viewBox="0 0 145.9349 216.60353"
   version="1.0"
   y="0"
   x="0"
   inkscape:version="1.0.1 (3bc2e813f5, 2020-09-07)"
   sodipodi:docname="skull.svg"
   width="145.93491"
   height="216.60353">
  <defs
     id="defs32" />
  <sodipodi:namedview
     pagecolor="#ffffff"
     bordercolor="#666666"
     borderopacity="1"
     objecttolerance="10"
     gridtolerance="10"
     guidetolerance="10"
     inkscape:pageopacity="0"
     inkscape:pageshadow="2"
     inkscape:window-width="1982"
     inkscape:window-height="1153"
     id="namedview30"
     showgrid="false"
     inkscape:zoom="1.7793546"
     inkscape:cx="73.852876"
     inkscape:cy="169.01344"
     inkscape:window-x="0"
     inkscape:window-y="50"
     inkscape:window-maximized="0"
     inkscape:current-layer="svg557" />
  <g
     id="g790"
     transform="translate(-286.45714,-51.495556)">
    <path
       id="selection_to_path"
       style="fill:#ffffff;stroke:#000000"
       d="m 297,155 c 3,-9 0,-25 1,-35 1,-6 5,-12 8,-18 2,-6 5,-14 12,-16 -2,6 -3,6 -5,11 l -3,11 c -2,5 -5,7 -6,12 -2,7 -1,24 -1,32 0,2 0,5 -2,7 -3,4 -12,1 -11,11 0,1 0,3 1,4 4,9 20,12 28,16 8,5 6,10 14,15 8,6 29,6 39,5 3,-1 8,-1 11,-3 8,-3 9,-11 17,-16 6,-3 19,-5 25,-14 1,-1 2,-3 2,-4 3,-11 -10,-7 -13,-14 -2,-5 1,-21 2,-26 l 3,3 v 9 l 1,10 c 11,-2 10,-15 11,-24 2,-24 2,-39 -15,-58 C 406,63 393,55 379,53 h -9 l -7,-1 -8,1 c -13,1 -22,1 -33,7 -8,4 -13,9 -19,16 -15,16 -18,36 -15,57 1,8 3,17 9,22 z m 33,-30 c 14,-1 24,9 19,23 -4,9 -13,16 -23,18 -9,1 -13,-5 -13,-13 0,-13 2,-24 17,-28 z m 56,0 c 12,0 18,10 19,21 0,3 1,6 1,8 -1,7 -8,12 -15,13 -11,0 -24,-17 -23,-27 2,-9 10,-13 18,-15 z m -18,61 -11,-2 -9,3 c -1,-7 2,-17 5,-24 1,-2 3,-6 5,-7 4,-1 5,4 5,6 2,8 5,16 5,24 z" />
    <path
       id="selection_to_path#1"
       style="fill:#ffffff;stroke:#000000"
       d="m 407,202 c -3,1 -7,1 -10,3 -10,7 -5,24 -14,35 -4,5 -13,7 -20,7 -13,0 -29,-1 -35,-14 -5,-9 2,-18 -9,-29 -2,-1 -5,-4 -7,-4 -3,0 -2,4 -2,6 l 1,20 c 0,15 4,15 11,24 4,6 7,12 14,15 9,3 19,3 28,2 7,0 11,1 18,-3 7,-4 19,-20 21,-28 l 1,-14 c 2,-10 3,-8 3,-20 z" />
    <path
       id="selection_to_path#8"
       style="fill:#ffffff;stroke:#000000"
       d="m 336,233 c 0,2.5 0.25,5.54 1.25,7.04 1,1.5 4.75,1.63 5.75,0.96 0.81,-0.82 -0.75,-4.75 -1.62,-5.88 C 340.5,234 339,233.5 336,233 Z" />
    <path
       id="selection_to_path#7"
       style="fill:#ffffff;stroke:#000000"
       d="m 344,234 1,5 c 0,1 1,3 2,4 4,2 6,-8 3,-9 -2,-1 -4,0 -6,0 z" />
    <path
       id="selection_to_path#6"
       style="fill:#ffffff;stroke:#000000"
       d="m 356,235 c -3,2 -3.09,5.72 -1.96,7.6 1.12,1.87 3.46,1.9 4.96,1.4 1,-0.5 2.5,-3 2.62,-5.25 0.13,-2.25 -1.12,-4.25 -5.62,-3.75 z" />
    <path
       id="path784"
       style="fill:#ffffff;stroke:#000000"
       d="m 345,222 c 2.7,1.4 7.17,-0.09 7.17,-0.09 L 352,216 c -1,-4 -4,-5 -6,-3 -1,2 -1,7 -1,9 z" />
    <path
       id="path785"
       style="fill:#ffffff;stroke:#000000"
       d="m 360,212 c -1,0 -4.13,-0.52 -5.13,0.48 -1.96,1.96 -2.87,8.52 0.13,10.52 1.87,0.48 5,0.91 6,-3.09 V 217 c 0,0 -0.04,-3.26 -1,-5 z" />
    <path
       id="path786"
       style="fill:#ffffff;stroke:#000000"
       d="m 370,244 c 0.91,0.4 2,-1 3,-2 7,-7 -7.56,-12.61 -5,-2 0,0 0.95,3.83 2,4 z" />
    <path
       id="path787"
       style="fill:#ffffff;stroke:#000000"
       d="m 341.74,211 c -1,-0.35 -2.74,0 -3.74,0 -7.78,3.52 2,17 5,8 v -3 c 0,0 -0.56,-4.65 -1.26,-5 z" />
    <path
       id="path788"
       style="fill:#ffffff;stroke:#000000"
       d="m 364,212 c 0,0 -1.7,10.13 -1,11 1.31,0.7 5.34,0.52 6.83,-0.52 0,-3 0.18,-6.51 -0.42,-8.34 C 368.8,212.31 367.5,212.5 364,212 Z" />
    <path
       id="path789"
       style="fill:#ffffff;stroke:#000000"
       d="M 373.56,210.83 373,216 c 0,3 0.65,8.83 4.65,5.83 0.5,-0.5 1.85,-6.45 1.3,-9.17 -1.03,-1.45 -2.91,-1.6 -5.39,-1.83 z" />
  </g>
  <metadata
     id="metadata27">
    <rdf:RDF>
      <cc:Work>
        <dc:format>image/svg+xml</dc:format>
        <dc:type
           rdf:resource="http://purl.org/dc/dcmitype/StillImage" />
        <cc:license
           rdf:resource="http://creativecommons.org/licenses/publicdomain/" />
        <dc:publisher>
          <cc:Agent
             rdf:about="http://openclipart.org/">
            <dc:title>Openclipart</dc:title>
          </cc:Agent>
        </dc:publisher>
        <dc:title></dc:title>
        <dc:date>2010-04-15T14:44:01</dc:date>
        <dc:description>public domain art uploaded anonymously from OCAL 0.18</dc:description>
        <dc:source>https://openclipart.org/detail/47605/pirate-jack-rackham-by-anonymous</dc:source>
        <dc:creator>
          <cc:Agent>
            <dc:title>Anonymous</dc:title>
          </cc:Agent>
        </dc:creator>
        <dc:subject>
          <rdf:Bag>
            <rdf:li>flag</rdf:li>
            <rdf:li>pirate</rdf:li>
          </rdf:Bag>
        </dc:subject>
      </cc:Work>
      <cc:License
         rdf:about="http://creativecommons.org/licenses/publicdomain/">
        <cc:permits
           rdf:resource="http://creativecommons.org/ns#Reproduction" />
        <cc:permits
           rdf:resource="http://creativecommons.org/ns#Distribution" />
        <cc:permits
           rdf:resource="http://creativecommons.org/ns#DerivativeWorks" />
      </cc:License>
    </rdf:RDF>
  </metadata>
</svg>
